<svg xmlns="http://www.w3.org/2000/svg" viewBox="0 0 720 480" role="img" aria-label="Developer working with Python, SQL, notebooks and data tables">
  <rect width="720" height="480" rx="24" fill="#050B18"/>
  <rect x="34" y="40" width="652" height="400" rx="20" fill="#0B1220" stroke="#17314F"/>
  <rect x="74" y="88" width="260" height="160" rx="16" fill="#0E1A2E" stroke="#2B5C97"/>
  <rect x="90" y="108" width="90" height="18" rx="9" fill="#00F7FF"/>
  <rect x="90" y="138" width="140" height="12" rx="6" fill="#3B82F6" opacity="0.8"/>
  <rect x="90" y="160" width="110" height="12" rx="6" fill="#8B5CF6" opacity="0.75"/>
  <rect x="90" y="182" width="160" height="12" rx="6" fill="#3B82F6" opacity="0.55"/>
  <rect x="368" y="88" width="236" height="160" rx="16" fill="#0E1A2E" stroke="#2B5C97"/>
  <rect x="392" y="112" width="188" height="108" rx="12" fill="#050B18"/>
  <rect x="412" y="132" width="52" height="10" rx="5" fill="#00F7FF"/>
  <rect x="472" y="132" width="90" height="10" rx="5" fill="#3B82F6"/>
  <rect x="412" y="154" width="120" height="10" rx="5" fill="#8B5CF6"/>
  <path d="M222 330H504" stroke="#17314F" stroke-width="10" stroke-linecap="round"/>
  <rect x="198" y="274" width="112" height="92" rx="16" fill="#0E1A2E" stroke="#3B82F6"/>
  <rect x="214" y="292" width="80" height="42" rx="8" fill="#050B18"/>
  <circle cx="254" cy="312" r="14" fill="#00F7FF"/>
  <rect x="360" y="262" width="140" height="104" rx="16" fill="#0E1A2E" stroke="#8B5CF6"/>
  <rect x="382" y="284" width="90" height="16" rx="8" fill="#00F7FF"/>
  <rect x="382" y="312" width="78" height="10" rx="5" fill="#3B82F6"/>
  <circle cx="263" cy="260" r="44" fill="#0E1A2E" stroke="#00F7FF" stroke-width="3"/>
  <circle cx="263" cy="260" r="18" fill="#00F7FF" opacity="0.8"/>
  <path d="M246 246L228 220" stroke="#00F7FF" stroke-width="4" stroke-linecap="round"/>
  <path d="M280 246L298 220" stroke="#8B5CF6" stroke-width="4" stroke-linecap="round"/>
  <path d="M263 284L263 316" stroke="#3B82F6" stroke-width="4" stroke-linecap="round"/>
  <path d="M520 278V336" stroke="#00F7FF" stroke-width="4" stroke-linecap="round"/>
  <path d="M504 296H536" stroke="#00F7FF" stroke-width="4" stroke-linecap="round"/>
  <text x="76" y="418" font-family="Segoe UI, Arial, sans-serif" font-size="24" font-weight="600" fill="#E5F6FF">Python • SQL • Jupyter • VS Code</text>
</svg>
