<svg xmlns="http://www.w3.org/2000/svg" viewBox="0 0 720 420" role="img" aria-label="Voice assistant project illustration">
  <rect width="720" height="420" rx="24" fill="#050B18"/>
  <rect x="42" y="42" width="636" height="336" rx="20" fill="#0B1220" stroke="#17314F"/>
  <circle cx="240" cy="210" r="92" fill="#0E1A2E" stroke="#00F7FF" stroke-width="3"/>
  <rect x="214" y="166" width="52" height="88" rx="26" fill="#00F7FF"/>
  <rect x="226" y="182" width="28" height="44" rx="14" fill="#0B1220"/>
  <path d="M208 238C208 274 244 298 240 316" stroke="#3B82F6" stroke-width="6" stroke-linecap="round"/>
  <path d="M272 238C272 274 236 298 240 316" stroke="#8B5CF6" stroke-width="6" stroke-linecap="round"/>
  <rect x="360" y="148" width="220" height="120" rx="16" fill="#0E1A2E" stroke="#2B5C97"/>
  <rect x="384" y="172" width="128" height="12" rx="6" fill="#00F7FF"/>
  <rect x="384" y="196" width="84" height="10" rx="5" fill="#3B82F6"/>
  <rect x="384" y="218" width="96" height="10" rx="5" fill="#8B5CF6"/>
  <rect x="384" y="246" width="156" height="10" rx="5" fill="#00F7FF" opacity="0.75"/>
  <text x="90" y="342" fill="#E5F6FF" font-family="Segoe UI, Arial, sans-serif" font-size="26" font-weight="600">Voice Assistant • Python Automation</text>
</svg>
